<svg xmlns="http://www.w3.org/2000/svg" width="60.438" height="59.719" id="basket">
  <path fill-rule="evenodd" d="M53.707 16.919h-3.3l9.647-13.822a1.971 1.971 0 0 0-.5-2.769 2.023 2.023 0 0 0-2.8.518L45.51 16.919H14.896L3.657.846a2.022 2.022 0 0 0-2.8-.518 1.971 1.971 0 0 0-.5 2.769l9.648 13.822h-3.3a6.616 6.616 0 0 0-3.686 12.169V49.94a9.869 9.869 0 0 0 9.9 9.779H47.48a9.869 9.869 0 0 0 9.91-9.779V29.086a6.616 6.616 0 0 0-3.683-12.167zm-.343 33.021a5.851 5.851 0 0 1-5.881 5.8H12.919a5.851 5.851 0 0 1-5.881-5.8V30.181h46.323v19.757zm.343-23.74H6.699a2.65 2.65 0 1 1 0-5.3h47.008a2.649 2.649 0 1 1 0 5.298zm-23.5 27.136a2 2 0 0 1-2.014-1.992V35.16a2.014 2.014 0 0 1 4.028 0v16.182a2 2 0 0 1-2.018 1.992zm10.07 0a2 2 0 0 1-2.014-1.992V35.16a2.014 2.014 0 0 1 4.028 0v16.182a2 2 0 0 1-2.018 1.992zm-20.141 0a2 2 0 0 1-2.014-1.992V35.16a2.014 2.014 0 0 1 4.028 0v16.182a2 2 0 0 1-2.018 1.992z" style="fill-rule:evenodd"></path>
</svg>
