<?xml version="1.0" standalone="no"?>
<!DOCTYPE svg PUBLIC "-//W3C//DTD SVG 20010904//EN"
 "http://www.w3.org/TR/2001/REC-SVG-20010904/DTD/svg10.dtd">
<svg version="1.0" xmlns="http://www.w3.org/2000/svg"
 width="900.000000pt" height="900.000000pt" viewBox="0 0 900.000000 900.000000"
 preserveAspectRatio="xMidYMid meet">

<g transform="translate(0.000000,900.000000) scale(0.100000,-0.100000)"
fill="#000000" stroke="none">
<path d="M4190 7934 c-182 -25 -216 -32 -312 -68 -53 -19 -121 -38 -150 -42
-29 -3 -64 -14 -78 -23 -14 -10 -70 -30 -125 -46 -55 -15 -109 -36 -120 -46
-11 -10 -40 -21 -65 -25 -62 -10 -112 -32 -204 -93 -43 -28 -97 -56 -120 -62
-59 -16 -107 -42 -140 -78 -17 -17 -36 -31 -43 -31 -7 0 -64 -52 -126 -116
-61 -64 -128 -124 -147 -134 -51 -27 -161 -144 -215 -229 -25 -40 -74 -103
-108 -140 -121 -128 -158 -183 -172 -251 -14 -69 -57 -163 -126 -271 -39 -61
-76 -127 -84 -147 -7 -20 -20 -51 -29 -68 -9 -17 -21 -58 -26 -90 -6 -33 -15
-78 -20 -102 -6 -23 -10 -60 -10 -81 0 -40 -11 -80 -56 -201 l-28 -75 -4 -410
c-4 -429 1 -490 39 -539 24 -31 103 -226 116 -288 6 -26 44 -103 87 -176 41
-71 95 -169 118 -218 23 -49 66 -126 95 -171 29 -45 59 -95 67 -110 8 -16 36
-54 63 -86 26 -31 60 -72 75 -90 15 -19 63 -55 107 -80 45 -26 110 -74 146
-106 36 -33 96 -77 133 -98 l67 -39 5 -404 c4 -254 10 -429 18 -470 7 -36 17
-92 23 -126 6 -33 12 -166 15 -295 2 -129 7 -283 11 -343 l8 -108 44 -39 c57
-51 97 -61 191 -49 41 5 219 17 395 25 360 18 1533 15 1750 -3 66 -6 208 -14
316 -17 192 -7 197 -7 208 13 13 25 14 176 1 417 -16 301 -23 894 -10 945 6
25 15 104 21 175 6 72 14 159 17 195 l7 64 120 73 c66 41 146 83 177 95 31 11
74 35 95 52 21 17 51 40 67 50 67 43 180 142 219 193 23 30 56 72 72 94 17 21
69 75 116 118 130 121 188 198 254 341 76 166 95 215 95 249 0 15 13 55 30 87
16 32 30 75 30 94 0 20 7 45 15 58 21 29 45 109 45 149 0 18 7 50 15 70 38 99
52 325 35 584 -8 134 -18 212 -31 251 -11 32 -19 84 -19 117 0 33 -5 72 -10
87 -6 15 -13 55 -16 88 -3 33 -8 64 -11 69 -3 5 -11 37 -19 73 -7 35 -20 74
-28 86 -9 12 -16 31 -16 42 0 48 -115 373 -152 430 -21 33 -38 66 -38 74 0 42
-167 311 -227 365 -19 17 -53 56 -74 84 -22 29 -63 71 -92 93 -28 22 -74 58
-102 80 -49 39 -370 231 -410 246 -11 4 -32 18 -47 30 -26 21 -126 72 -213
109 -79 33 -305 105 -331 105 -14 0 -60 11 -101 25 -103 35 -202 57 -298 66
-44 4 -109 13 -145 19 -97 17 -516 20 -630 4z m565 -274 c33 -6 101 -15 150
-20 93 -8 208 -34 308 -69 32 -11 79 -23 105 -26 75 -8 229 -66 339 -128 56
-32 137 -74 180 -94 79 -38 307 -168 398 -228 28 -18 64 -52 80 -76 17 -23 75
-90 131 -148 115 -121 135 -154 170 -287 27 -105 31 -114 104 -235 36 -61 50
-94 50 -121 0 -21 9 -61 20 -90 11 -29 20 -63 20 -76 0 -13 11 -56 23 -95 13
-40 29 -106 36 -147 7 -41 18 -109 26 -150 8 -41 17 -113 19 -160 3 -47 12
-139 21 -205 15 -103 15 -132 5 -205 -7 -47 -17 -89 -21 -94 -5 -6 -9 -24 -9
-42 0 -17 -7 -51 -15 -75 -9 -24 -13 -56 -10 -71 7 -31 -16 -109 -71 -240 -20
-46 -44 -105 -54 -133 -85 -231 -130 -336 -156 -365 -16 -17 -101 -102 -188
-188 -88 -86 -180 -179 -205 -205 -98 -105 -169 -151 -450 -291 l-275 -137
-155 -20 c-262 -34 -324 -39 -383 -33 -39 4 -81 1 -135 -12 -72 -17 -131 -18
-738 -18 -600 1 -927 7 -980 19 -11 2 -54 37 -95 78 -41 40 -109 93 -150 117
-41 24 -93 60 -115 80 -23 20 -74 59 -115 87 -41 28 -89 66 -106 84 -42 46
-116 154 -144 209 -12 25 -42 72 -65 105 -23 33 -55 85 -70 115 -15 30 -44 78
-65 105 -20 28 -51 82 -68 120 -63 146 -102 244 -102 258 0 7 -13 40 -29 73
-16 32 -32 69 -35 80 -11 37 13 675 29 755 8 41 26 103 40 137 19 46 29 96 36
175 7 83 15 124 33 157 12 25 29 68 36 95 8 28 22 61 31 75 10 14 23 45 29 69
6 24 36 79 66 123 30 44 54 88 54 99 0 11 7 36 15 55 26 63 304 418 352 449
15 10 82 71 149 134 186 178 233 216 292 236 30 9 101 46 158 80 62 38 124 68
154 74 28 6 63 17 78 25 15 8 52 21 82 29 30 9 141 45 245 82 219 76 291 95
395 105 120 11 479 11 545 0z m765 -4762 c0 -46 -5 -146 -10 -223 -5 -77 -10
-262 -12 -412 -2 -149 -6 -269 -11 -266 -4 2 -19 27 -33 56 -15 28 -48 85 -74
127 -26 42 -60 101 -75 131 -15 29 -44 74 -65 99 -21 25 -47 63 -58 86 -11 22
-40 62 -65 90 -59 65 -172 234 -181 270 -4 15 -16 40 -27 56 l-20 28 93 1 c96
0 213 12 283 28 22 5 88 9 148 10 l107 1 0 -82z m-2054 5 c156 -8 194 -17 194
-45 0 -18 59 -134 87 -169 15 -20 39 -55 53 -79 14 -23 48 -76 76 -118 29 -43
91 -135 139 -207 49 -71 107 -165 131 -208 24 -43 65 -106 92 -140 27 -34 62
-82 77 -107 15 -25 42 -61 59 -80 18 -19 56 -65 85 -102 l53 -68 -244 0 -243
1 -68 77 c-37 42 -88 113 -113 157 -25 44 -55 94 -68 110 -12 17 -54 84 -94
150 -71 116 -165 252 -238 345 -20 25 -47 68 -61 95 -24 48 -154 229 -173 240
-9 6 -80 108 -99 143 l-12 23 103 -5 c57 -3 175 -9 264 -13z m1109 -9 c18 -7
100 -124 135 -194 26 -52 126 -193 185 -261 22 -26 60 -84 85 -130 25 -46 72
-124 106 -174 34 -49 71 -110 84 -135 12 -25 44 -75 70 -111 27 -36 57 -84 67
-105 46 -92 116 -211 141 -236 30 -32 25 -33 -42 -13 -65 20 -287 45 -397 45
l-89 0 -58 46 c-98 80 -118 99 -149 145 -17 24 -45 58 -63 74 -18 17 -50 54
-72 83 -21 29 -59 75 -85 104 -25 28 -58 80 -73 114 -31 69 -155 264 -247 388
-32 44 -77 112 -100 153 -23 40 -60 98 -82 130 -23 31 -41 60 -41 64 0 4 26
10 58 12 105 6 550 7 567 1z m-1464 -466 c43 -69 175 -246 206 -277 13 -13 37
-49 55 -80 48 -85 148 -243 174 -274 13 -15 42 -67 66 -115 23 -48 43 -90 45
-93 2 -3 -54 -9 -124 -13 -70 -3 -146 -11 -168 -16 -22 -5 -73 -10 -113 -10
-40 0 -82 -5 -93 -10 -36 -20 -42 25 -49 365 -4 176 -11 334 -17 350 -11 33
-28 225 -20 225 3 0 20 -24 38 -52z"/>
<path d="M2777 5893 c-36 -26 -37 -27 -37 -92 l0 -66 77 -95 c42 -52 112 -134
154 -182 141 -160 174 -229 127 -263 -63 -45 -330 -215 -338 -215 -5 0 -40
-28 -79 -62 l-71 -62 0 -67 c0 -63 2 -69 30 -93 62 -51 156 -43 207 18 15 19
53 49 83 67 30 18 80 51 110 74 30 23 87 60 125 82 39 23 83 55 100 72 l29 32
221 -220 c130 -130 230 -222 245 -226 34 -8 78 10 118 48 28 27 32 37 32 82
l0 51 -126 119 c-69 66 -134 136 -145 157 -10 20 -44 56 -74 78 -30 22 -55 44
-55 49 0 11 30 36 66 54 17 9 53 37 80 62 27 25 54 45 61 45 6 0 29 21 50 46
70 86 168 186 194 200 14 7 50 41 79 74 51 59 53 63 54 123 l1 62 -45 23 c-24
12 -60 22 -79 22 -50 0 -115 -35 -145 -79 -42 -61 -317 -325 -358 -344 -20 -9
-55 -33 -78 -52 -23 -19 -43 -35 -45 -35 -2 0 -24 33 -50 73 -26 39 -78 104
-115 142 -37 39 -73 81 -80 95 -7 14 -31 48 -52 76 -21 28 -43 65 -49 83 -24
69 -151 95 -222 44z"/>
<path d="M4964 5841 c-29 -13 -61 -56 -69 -91 -11 -49 21 -124 83 -198 31 -37
66 -73 77 -81 11 -8 52 -45 90 -81 39 -37 84 -75 102 -85 29 -17 80 -73 71
-79 -1 -1 -31 -23 -64 -49 -34 -25 -101 -71 -149 -101 -95 -60 -246 -191 -276
-240 -35 -57 -18 -144 33 -180 27 -19 104 -20 134 -3 12 7 54 46 93 88 45 49
102 96 157 130 48 30 115 76 150 102 58 43 66 46 84 34 35 -24 121 -101 163
-146 23 -24 61 -64 83 -88 55 -57 96 -59 160 -7 40 33 44 40 44 81 0 25 -7 60
-15 78 -9 18 -72 87 -140 154 -69 67 -125 129 -125 138 0 8 33 47 74 86 40 40
88 95 107 122 18 28 49 69 69 92 39 45 80 138 80 181 0 15 -9 41 -19 59 -42
68 -169 48 -228 -35 -15 -23 -48 -70 -73 -107 -25 -36 -74 -96 -110 -133 l-65
-67 -34 38 c-19 21 -58 54 -88 74 -67 45 -143 129 -194 216 -22 37 -50 74 -63
82 -29 19 -113 28 -142 16z"/>
<path d="M4301 4429 c-21 -21 -31 -40 -31 -61 0 -18 -24 -77 -57 -141 -52
-100 -69 -122 -172 -225 -63 -62 -132 -122 -153 -133 -89 -46 -90 -188 -1
-225 54 -23 101 -13 180 38 69 46 143 119 221 219 23 30 55 68 72 84 29 28 30
28 50 10 12 -11 34 -44 51 -74 16 -31 62 -99 102 -151 78 -103 130 -140 197
-140 49 0 109 60 117 117 5 36 1 44 -38 89 -24 27 -68 83 -98 124 -30 41 -72
98 -93 126 -21 28 -38 57 -38 65 0 8 -14 43 -31 79 -17 36 -37 86 -45 111 -9
31 -28 59 -54 83 -36 32 -46 36 -94 36 -47 0 -58 -4 -85 -31z"/>
</g>
</svg>
