<?xml version="1.0" standalone="no"?>
<!DOCTYPE svg PUBLIC "-//W3C//DTD SVG 20010904//EN"
 "http://www.w3.org/TR/2001/REC-SVG-20010904/DTD/svg10.dtd">
<svg version="1.0" xmlns="http://www.w3.org/2000/svg"
 width="1200.000000pt" height="628.000000pt" viewBox="0 0 1200.000000 628.000000"
 preserveAspectRatio="xMidYMid meet">

<g transform="translate(0.000000,628.000000) scale(0.100000,-0.100000)"
fill="#000000" stroke="none">
<path d="M952 4363 c-53 -19 -94 -67 -134 -158 -17 -38 -44 -90 -61 -114 -62
-90 -206 -249 -298 -327 -138 -117 -165 -136 -265 -188 -71 -36 -98 -56 -124
-92 -30 -43 -32 -49 -22 -82 13 -42 50 -85 90 -106 15 -7 72 -23 127 -35 55
-12 139 -35 186 -51 48 -17 106 -30 130 -30 97 -1 484 -110 484 -137 0 -6 -53
-53 -118 -103 -65 -51 -144 -117 -176 -148 -63 -63 -162 -190 -205 -265 -15
-26 -32 -45 -37 -41 -5 3 -18 37 -30 77 -27 91 -39 110 -171 289 -127 170
-156 189 -247 157 -33 -11 -81 -79 -81 -114 0 -9 52 -110 115 -224 87 -156
128 -243 171 -361 126 -348 127 -350 165 -371 35 -18 106 -21 143 -5 43 18 56
43 100 195 39 133 46 149 86 201 15 19 48 69 73 110 25 41 62 94 82 117 66 78
310 257 508 373 47 27 70 71 71 132 1 76 -17 91 -229 190 -104 49 -209 95
-234 103 -25 7 -82 30 -126 49 -59 26 -110 40 -195 52 -63 8 -125 18 -137 20
-18 3 9 35 172 199 107 107 201 195 210 195 32 0 54 -21 136 -127 110 -144
235 -279 270 -293 56 -24 165 42 189 115 17 51 -5 90 -114 203 -126 132 -200
247 -306 474 -43 93 -87 139 -131 137 -13 0 -43 -7 -67 -16z"/>
<path d="M4721 4248 c-75 -44 -139 -57 -351 -69 -189 -10 -522 0 -675 22 -110
15 -172 -6 -205 -71 -32 -62 -27 -106 16 -147 73 -68 165 -93 348 -93 52 0
106 -4 120 -10 34 -12 34 -34 -1 -226 -25 -142 -26 -165 -27 -514 -1 -338 1
-373 21 -472 12 -58 29 -120 38 -137 28 -55 116 -82 193 -61 77 20 101 98 66
217 -34 116 0 1140 39 1191 7 9 53 12 168 12 l159 0 0 -152 c0 -135 2 -157 20
-186 42 -68 137 -93 210 -53 66 35 70 48 75 231 2 100 11 208 23 274 26 146
14 192 -65 246 -53 36 -108 36 -172 -2z"/>
<path d="M7009 4220 c-84 -90 -76 -151 33 -257 40 -38 99 -86 130 -106 31 -20
59 -46 63 -57 4 -11 1 -45 -5 -76 -7 -31 -9 -75 -6 -98 8 -51 -22 -311 -62
-557 -28 -167 -50 -363 -68 -601 -7 -96 -13 -105 -122 -199 -39 -33 -42 -39
-42 -86 0 -41 7 -60 37 -107 37 -55 38 -56 85 -56 43 0 52 5 120 64 109 95
279 212 408 281 63 34 143 80 177 102 34 22 115 60 180 84 64 23 159 64 212
91 52 26 95 47 96 46 7 -9 -19 -167 -40 -238 -32 -109 -31 -131 6 -197 49 -86
99 -107 174 -74 62 27 75 61 119 296 20 105 41 216 47 247 l12 57 24 -16 c21
-14 84 -84 171 -192 40 -50 254 -231 301 -256 99 -51 237 45 216 150 -8 42
-14 48 -155 161 -69 56 -151 132 -182 170 -31 38 -82 93 -114 122 -31 29 -53
57 -48 61 5 5 56 21 114 36 58 16 139 41 180 56 41 14 95 30 120 34 61 10 230
79 257 105 12 12 25 37 29 57 8 40 -10 130 -31 160 -17 25 -217 177 -330 253
-119 79 -199 143 -310 250 -124 119 -154 140 -197 140 -48 0 -139 -48 -165
-88 -12 -19 -25 -55 -29 -80 -4 -26 -17 -83 -30 -126 -13 -44 -24 -93 -24
-110 l0 -30 -37 36 c-52 49 -136 89 -321 152 -87 29 -190 70 -230 90 -40 20
-102 43 -138 52 -165 38 -310 113 -404 209 -112 114 -149 122 -221 45z m726
-600 c130 -49 170 -69 159 -79 -19 -17 -223 -149 -276 -179 -70 -39 -83 -40
-105 -6 -16 25 -16 34 -1 150 8 68 21 131 28 139 21 25 82 17 195 -25z m1072
-65 c76 -58 162 -124 192 -146 40 -30 50 -43 40 -49 -8 -4 -72 -24 -144 -44
-71 -20 -166 -48 -209 -62 -43 -13 -81 -22 -84 -19 -3 3 0 22 6 44 7 21 12 63
12 93 0 30 9 90 20 133 11 43 20 95 20 117 0 21 2 38 5 38 2 0 66 -47 142
-105z m-487 -124 c0 -5 -5 -22 -12 -38 -7 -17 -13 -126 -17 -285 -3 -141 -10
-260 -15 -265 -4 -4 -16 3 -24 17 -33 49 -75 80 -131 95 -31 9 -92 28 -136 42
-44 15 -127 36 -184 48 -58 11 -106 25 -108 30 -3 11 257 171 372 228 39 19
108 58 154 86 86 52 101 58 101 42z m-716 -627 c70 -20 125 -38 123 -40 -2 -2
-74 -39 -161 -83 l-158 -79 6 37 c3 20 8 70 12 111 7 78 18 104 40 96 7 -3 69
-21 138 -42z"/>
<path d="M5955 4161 c-51 -23 -79 -72 -104 -182 -24 -104 -28 -135 -45 -377
-8 -106 -19 -199 -25 -206 -25 -30 -347 -57 -444 -37 -34 8 -60 19 -66 29 -5
10 -1 58 10 122 36 209 51 468 29 511 -7 13 -26 39 -43 57 -28 29 -37 32 -87
32 -70 0 -119 -29 -137 -80 -7 -19 -12 -88 -12 -153 -1 -83 -7 -142 -20 -195
-11 -43 -31 -147 -45 -232 -39 -239 -80 -424 -131 -592 -56 -182 -99 -275
-160 -345 -36 -41 -45 -59 -45 -88 0 -51 23 -89 74 -125 52 -35 75 -37 135 -7
40 20 53 37 138 182 51 88 98 178 104 200 5 22 25 90 44 150 19 61 39 129 45
152 6 26 19 47 33 54 23 13 310 38 439 39 66 0 79 -3 88 -19 6 -12 10 -99 10
-213 0 -237 12 -347 43 -408 29 -56 91 -102 142 -103 32 -1 43 5 81 45 53 56
61 84 43 157 -27 110 -12 538 26 739 8 40 19 130 25 200 21 231 39 366 56 412
21 58 22 156 2 195 -31 57 -98 105 -146 105 -9 0 -35 -9 -57 -19z"/>
<path d="M2852 4134 c-66 -33 -90 -73 -132 -219 -44 -156 -113 -259 -319 -481
-131 -141 -146 -166 -138 -241 9 -90 44 -123 129 -123 38 0 104 -23 208 -73
66 -32 153 -122 175 -182 10 -27 33 -82 51 -120 24 -52 37 -101 49 -185 18
-124 34 -161 90 -198 40 -28 87 -28 136 0 64 36 90 84 101 185 19 177 90 414
148 496 23 31 103 110 178 175 146 125 182 173 182 243 0 52 -23 76 -181 185
-158 110 -200 152 -351 351 -97 127 -114 144 -173 177 -36 20 -74 36 -83 36
-10 0 -42 -12 -70 -26z m196 -486 c63 -83 117 -135 235 -222 20 -16 37 -34 37
-40 0 -6 -58 -78 -129 -159 -90 -103 -136 -164 -152 -202 -12 -30 -25 -55 -28
-55 -3 0 -26 34 -51 75 -60 102 -103 143 -205 195 -48 25 -89 48 -91 52 -3 4
43 62 102 130 84 98 115 143 152 221 26 53 50 97 54 97 4 0 38 -42 76 -92z"/>
<path d="M1882 4060 c-45 -28 -61 -70 -88 -235 -13 -77 -41 -210 -63 -295 -23
-85 -51 -198 -64 -250 -44 -177 -155 -564 -188 -655 -17 -49 -61 -139 -97
-198 -56 -92 -66 -115 -66 -157 -2 -87 65 -144 161 -137 68 5 99 27 128 93 50
113 114 169 255 223 74 29 77 29 290 29 231 -1 265 6 318 55 90 84 57 185 -81
252 -67 33 -79 35 -167 35 -100 0 -232 -24 -334 -59 -33 -12 -61 -19 -63 -17
-2 2 6 25 17 52 12 27 28 78 36 114 8 36 23 90 33 120 10 30 24 93 31 140 7
47 25 121 40 165 40 111 108 414 116 510 11 145 -43 235 -141 235 -23 0 -54
-9 -73 -20z"/>
<path d="M9820 4073 c-24 -9 -61 -46 -77 -77 -13 -25 -13 -38 -3 -83 14 -65
58 -113 122 -136 184 -68 265 -99 284 -112 39 -25 41 -90 16 -422 -6 -67 -13
-126 -16 -132 -4 -6 -15 -97 -26 -203 -10 -106 -24 -243 -31 -304 -19 -174 1
-243 82 -285 45 -23 71 -20 157 17 64 28 83 116 97 449 3 83 14 218 25 300 10
83 26 220 35 305 10 85 21 163 26 173 8 14 23 17 79 17 38 0 72 -4 75 -10 11
-19 57 -10 110 20 62 35 73 47 85 91 11 39 -12 85 -65 125 -52 40 -408 140
-653 184 -85 15 -141 32 -177 51 -55 29 -118 43 -145 32z"/>
<path d="M11606 4000 c-46 -6 -54 -11 -100 -66 -28 -32 -74 -82 -102 -111 -67
-66 -358 -261 -454 -303 -82 -36 -224 -124 -255 -160 -49 -55 -7 -180 81 -238
58 -39 118 -48 219 -34 133 19 265 26 265 15 0 -6 -30 -33 -67 -60 -188 -138
-394 -385 -505 -609 l-61 -123 29 -58 c34 -67 58 -83 131 -83 43 0 58 5 97 35
94 71 190 106 396 141 118 20 196 27 325 29 174 3 296 20 340 49 33 22 55 77
55 139 0 72 -13 105 -46 118 -44 16 -677 -4 -734 -24 -24 -9 -46 -15 -47 -13
-2 2 13 16 34 32 21 16 88 74 148 129 61 56 143 127 183 159 81 64 120 115
129 169 4 30 0 45 -27 87 -38 60 -116 128 -162 141 -18 5 -60 9 -93 10 -115 1
-114 3 74 142 191 142 249 197 286 271 27 54 30 82 15 137 -18 65 -67 90 -154
79z"/>
<path d="M9655 3641 c-80 -49 -93 -90 -94 -277 -1 -66 -7 -130 -16 -160 -13
-45 -31 -263 -27 -344 0 -19 -8 -98 -18 -175 -26 -182 -25 -230 3 -280 65
-114 197 -112 254 5 18 37 26 94 47 312 15 146 37 344 51 440 13 95 25 226 27
290 2 117 2 118 -26 147 -58 61 -143 78 -201 42z"/>
</g>
</svg>
